<?xml version="1.0" encoding="UTF-8"?>
<svg id="Capa_2" data-name="Capa 2" xmlns="http://www.w3.org/2000/svg" viewBox="0 0 781.36 342.42">
  <defs>
    <style>
      .cls-1 {
        fill: #ffd302;
      }

      .cls-2 {
        fill: none;
      }
    </style>
  </defs>
  <g id="RGB:_positivo_color" data-name="RGB: positivo color">
    <g>
      <g>
        <g>
          <path class="cls-1" d="M492.24,241.05c-8.33,0-14.89,6.04-14.89,14.6s6.56,14.52,14.89,14.52,14.74-6.05,14.74-14.52-6.41-14.6-14.74-14.6ZM492.24,266.56c-6.19,0-10.69-4.79-10.69-10.91s4.5-10.98,10.69-10.98,10.54,4.79,10.54,10.98-4.35,10.91-10.54,10.91Z"/>
          <path class="cls-1" d="M72.02,252.78c-3.83-1.84-4.5-2.95-4.5-4.64,0-2.43,2.14-3.54,4.57-3.54,1.77,0,3.69.88,4.79,2.14l2.29-2.88c-1.47-1.7-4.35-2.88-7.15-2.88-5.38,0-8.63,3.61-8.63,7.15,0,4.13,2.06,6.27,6.49,8.18,4.72,2.06,5.6,3.69,5.6,5.9,0,2.73-2.14,4.28-4.87,4.28-2.58,0-4.5-1.55-5.75-3.61l-2.36,2.88c1.62,2.8,4.5,4.35,8.11,4.35,5.75,0,9.07-3.76,9.07-7.89,0-4.5-2.65-7-7.67-9.44Z"/>
          <polygon class="cls-1" points="355.18 256.68 365.36 256.68 365.36 253.07 355.18 253.07 355.18 245.62 366.83 245.62 366.83 242.01 350.98 242.01 350.98 269.07 366.98 269.07 366.98 265.53 355.18 265.53 355.18 256.68"/>
          <path class="cls-1" d="M412.41,249.6c0-3.39-1.7-7.52-8.4-7.52h-8.18v27.06h4.2v-12.02h2.36l6.56,12.02h4.79l-6.86-12.38c3.24-.88,5.53-3.39,5.53-7.15ZM400.03,253.51v-7.81h3.91c2.65,0,4.28,1.33,4.28,3.91,0,2.14-1.62,3.91-4.28,3.91h-3.91Z"/>
          <path class="cls-1" d="M336.84,260.29c0,3.54-2.29,6.19-6.05,6.19s-5.9-2.65-5.9-6.19v-18.28h-4.28v17.99c0,5.82,4.35,10.1,10.17,10.1s10.25-4.28,10.25-10.1v-17.99h-4.2v18.28Z"/>
          <path class="cls-1" d="M249.74,252.78c-3.83-1.84-4.5-2.95-4.5-4.64,0-2.43,2.14-3.54,4.57-3.54,1.77,0,3.69.88,4.79,2.14l2.29-2.88c-1.47-1.7-4.35-2.88-7.15-2.88-5.38,0-8.63,3.61-8.63,7.15,0,4.13,2.06,6.27,6.49,8.18,4.72,2.06,5.6,3.69,5.6,5.9,0,2.73-2.14,4.28-4.87,4.28-2.58,0-4.5-1.55-5.75-3.61l-2.36,2.88c1.62,2.8,4.5,4.35,8.11,4.35,5.75,0,9.07-3.76,9.07-7.89,0-4.5-2.65-7-7.67-9.44Z"/>
          <path class="cls-1" d="M312.35,255.58c0-8.55-6.41-14.6-14.74-14.6s-14.89,6.05-14.89,14.6,6.56,14.52,14.89,14.52c3.32,0,6.33-.97,8.76-2.67l1.71,1.64h4.72l-3.98-3.82c2.21-2.51,3.53-5.84,3.53-9.67ZM297.61,266.49c-6.19,0-10.69-4.79-10.69-10.91s4.5-10.98,10.69-10.98,10.54,4.79,10.54,10.98c0,2.64-.81,5.02-2.23,6.89l-6.25-6.01h-4.79l8.65,8.27c-1.65,1.11-3.66,1.76-5.93,1.76Z"/>
          <polygon class="cls-1" points="428.04 256.76 438.22 256.76 438.22 253.14 428.04 253.14 428.04 245.7 439.69 245.7 439.69 242.09 423.84 242.09 423.84 269.14 439.84 269.14 439.84 265.6 428.04 265.6 428.04 256.76"/>
          <polygon class="cls-1" points="550.89 269.14 555.09 269.14 555.09 257.12 564.45 257.12 564.45 253.51 555.09 253.51 555.09 245.7 565.56 245.7 565.56 242.09 550.89 242.09 550.89 269.14"/>
          <polygon class="cls-1" points="534.63 260.22 516.2 241.05 516.2 269.14 520.4 269.14 520.4 250.78 538.76 270.25 538.83 242.09 534.63 242.09 534.63 260.22"/>
          <path class="cls-1" d="M448.43,255.65c0,8.11,6.34,14.52,14.38,14.52,2.8,0,5.53-.44,7.81-1.77v-4.64c-1.92,1.77-4.57,2.8-7.52,2.8-5.97,0-10.47-4.79-10.47-10.91s4.42-10.98,10.47-10.98c2.95,0,5.6,1.03,7.52,2.88v-4.72c-2.29-1.33-5.01-1.77-7.81-1.77-8.04,0-14.38,6.56-14.38,14.6Z"/>
          <path class="cls-1" d="M587.95,241.05c-8.33,0-14.89,6.04-14.89,14.6s6.56,14.52,14.89,14.52,14.74-6.05,14.74-14.52-6.41-14.6-14.74-14.6ZM587.95,266.56c-6.19,0-10.69-4.79-10.69-10.91s4.5-10.98,10.69-10.98,10.54,4.79,10.54,10.98-4.35,10.91-10.54,10.91Z"/>
          <path class="cls-1" d="M132.81,254.62c1.4-1.11,2.73-3.24,2.73-5.68,0-4.5-3.1-6.93-8.11-6.93h-7.81v27.06h8.7c4.79,0,8.7-2.58,8.7-7.74,0-3.83-2.43-5.97-4.2-6.71ZM123.75,245.62h3.46c2.51,0,4.05,1.25,4.05,3.76,0,2.14-1.55,3.69-4.05,3.69h-3.46v-7.45ZM128.02,265.53h-4.28v-8.85h4.28c2.95,0,4.79,1.7,4.79,4.5,0,2.58-1.84,4.35-4.79,4.35Z"/>
          <path class="cls-1" d="M86.34,269.07h4.35l2.8-7.08h9.95l2.8,7.08h4.35l-12.09-28.31-12.16,28.31ZM94.9,258.38l3.61-9.22,3.54,9.22h-7.15Z"/>
          <path class="cls-1" d="M662.58,269.14h4.35l2.8-7.08h9.95l2.8,7.08h4.35l-12.09-28.31-12.16,28.31ZM671.14,258.45l3.61-9.22,3.54,9.22h-7.15Z"/>
          <polygon class="cls-1" points="714.65 242.09 714.65 260.22 696.22 241.05 696.22 269.14 700.42 269.14 700.42 250.78 718.78 270.25 718.85 242.09 714.65 242.09"/>
          <path class="cls-1" d="M202.83,249.53c0-3.39-1.7-7.52-8.4-7.52h-8.18v27.06h4.2v-12.02h2.36l6.56,12.02h4.79l-6.86-12.38c3.24-.88,5.53-3.39,5.53-7.15ZM190.45,253.44v-7.81h3.91c2.65,0,4.28,1.33,4.28,3.91,0,2.14-1.62,3.91-4.28,3.91h-3.91Z"/>
          <polygon class="cls-1" points="638.75 245.7 646.19 245.7 646.19 269.14 650.39 269.14 650.39 245.7 657.77 245.7 657.77 242.09 638.75 242.09 638.75 245.7"/>
          <polygon class="cls-1" points="218.46 256.68 228.64 256.68 228.64 253.07 218.46 253.07 218.46 245.62 230.11 245.62 230.11 242.01 214.26 242.01 214.26 269.07 230.26 269.07 230.26 265.53 218.46 265.53 218.46 256.68"/>
          <path class="cls-1" d="M629.76,249.6c0-3.39-1.7-7.52-8.4-7.52h-8.18v27.06h4.2v-12.02h2.36l6.56,12.02h4.79l-6.86-12.38c3.24-.88,5.53-3.39,5.53-7.15ZM617.38,253.51v-7.81h3.91c2.65,0,4.28,1.33,4.28,3.91,0,2.14-1.62,3.91-4.28,3.91h-3.91Z"/>
          <path class="cls-1" d="M160.92,240.98c-8.33,0-14.89,6.05-14.89,14.6s6.56,14.52,14.89,14.52,14.74-6.05,14.74-14.52-6.41-14.6-14.74-14.6ZM160.92,266.49c-6.19,0-10.69-4.79-10.69-10.91s4.5-10.98,10.69-10.98,10.54,4.79,10.54,10.98-4.35,10.91-10.54,10.91Z"/>
        </g>
        <path id="Marca" class="cls-1" d="M162.33,149.07c0,14.22,6.37,23.45,19.27,23.45,9.49,0,16.16-5.57,20.31-13.05h.89c.3,10.11,5.93,13.05,13.04,13.05,3.56,0,6.37-1.32,7.56-2.79l-1.93-2.49c-1.19-1.61-2.37-4.1-2.37-7.77,0-2.2.74-7.48,1.48-11.73l8.89-48.67c-6.08-1.61-15.71-2.78-23.71-2.78-29.2,0-43.43,25.95-43.43,52.77h0ZM186.93,159.18c-4,0-6.97-3.96-6.97-10.85,0-14.51,8.15-39.14,24.01-39.14,2.67,0,5.04.29,6.67.73l-6.37,25.65c-3.26,13.05-8.3,23.6-17.34,23.6h0ZM207.24,185.42c-12.89,0-30.83-3.37-44.32-7.18-10.23-2.93-14.38-4.84-20.75-5.72l-.3-.73c1.33-2.79,4-7.77,5.48-16.56l10.67-61.71c2.22-12.17,3.41-20.08,12.75-23.01,1.04-.29,1.63-.73,1.63-1.76,0-.88-.74-1.91-1.93-1.91h-3.26c-18.38,0-25.2,10.85-27.42,26.38l-10.82,62c-1.19,6.74-4.45,15.68-9.04,22.13l-2.07,2.49c11.71,0,26.23,6.3,40.46,10.99,16.15,5.42,33.79,9.67,48.02,9.67,19.71-.29,37.05-8.06,37.05-23.6,0-.73-.59-1.32-1.19-1.32-.74,0-1.48.44-1.93.88-7.41,5.86-20.01,8.94-33.05,8.94h0ZM326.55,97.76l-13.34,73.29h17.19l13.34-73.29h-17.19ZM407.32,198.91c20.6,0,32.16-10.26,35.87-30.05l12.6-69.77c-4.15-1.03-12.89-2.78-23.71-2.78-27.57,0-42.68,24.92-42.68,48.52,0,12.46,5.63,23.31,19.42,23.31,8.74,0,16.3-5.13,20.45-13.19.74.29.59.29.74.29-1.78,2.78-2.82,8.94-3.41,11.58-2.37,11.43-7.11,18.03-20.45,18.03-7.56,0-12.45-2.05-17.19-8.21-.3-.44-.74-.88-1.48-.88s-1.33.59-1.63,1.17c-.74,1.61-1.19,3.52-1.19,5.72,0,10.11,11.86,16.27,22.68,16.27h0ZM413.99,154.79c-5.34,0-6.82-5.13-6.82-10.99,0-13.93,8-34.59,22.97-34.59,2.96,0,5.34.44,6.82.73l-4.45,17.74c-3.41,14.22-8,27.12-18.53,27.12h0ZM520.4,105.39h-.89l-4.74-9.23-14.08,3.08,1.19,2.49c1.19,2.05,1.63,5.72,1.63,8.5,0,1.32-1.33,10.7-2.07,14.51l-8.15,46.32h17.19c2.82-16.27,6.08-33.71,8.89-49.98,2.96-6.01,10.08-9.97,14.52-9.97,4.15,0,6.82,1.32,6.82,5.57,0,1.03-.15,2.35-.44,3.96l-5.34,28.58c-.59,3.22-.89,8.06-.89,9.38,0,3.52.74,6.74,2.52,9.38,1.63,2.49,5.63,4.54,10.08,4.54s7.26-1.17,8.45-2.79l-1.78-2.49c-1.33-1.91-2.37-4.69-2.37-7.77,0-1.61.59-6.89,1.48-11.87l5.48-29.46c.44-2.2.59-4.69.59-6.6,0-9.97-8.15-15.24-18.67-15.24-7.56,0-14.52,3.81-19.42,9.09h0ZM265.48,78.27h-17.34l11.41,92.79h18.82l16.15-25.95c12.3-19.79,20.75-40.9,20.75-57.02,0-11.43-6.08-23.01-19.86-23.01-1.78,0-4.15.44-5.63,1.03-.74.29-1.63.59-1.63,1.76,0,.44.44,1.03.89,1.47,5.48,5.57,7.56,11.87,7.56,17.74,0,16.42-6.22,32.54-22.97,64.2h-.89c.15-2.2.15-6.16.15-8.94,0-3.96-.59-9.67-.74-10.99l-6.67-53.06h0ZM372.64,105.53l-4.74-9.38-14.08,3.08,1.04,2.05c1.19,2.49,1.78,6.16,1.78,8.8,0,2.35-1.04,8.5-2.07,14.66l-8.15,46.32h17.19l8.89-49.98c3.85-5.86,8.45-8.79,14.67-8.79h4.45c1.19,0,2.37-.73,2.67-1.76.74-2.2,1.19-3.52,1.19-5.86,0-4.69-3.41-8.36-8.3-8.36-5.48,0-10.37,3.81-13.64,9.23h-.89ZM597.33,149.07c0,14.22,6.37,23.45,19.27,23.45,9.49,0,16.15-5.57,20.3-13.05h.89c.3,10.11,5.93,13.05,13.04,13.05,3.56,0,6.37-1.32,7.56-2.79l-1.93-2.49c-1.19-1.61-2.37-4.1-2.37-7.77,0-2.2.74-7.48,1.48-11.73l8.89-48.67c-6.08-1.61-15.71-2.78-23.71-2.78-29.2,0-43.43,25.95-43.43,52.77h0ZM621.93,159.18c-4,0-6.97-3.96-6.97-10.85,0-14.51,8.15-39.14,24.01-39.14,2.67,0,5.04.29,6.67.73l-6.37,25.65c-3.26,13.05-8.3,23.6-17.34,23.6h0ZM328.03,78.56v.73c0,5.57,4.3,8.06,10.37,8.06s10.67-3.52,10.67-10.55c0-5.57-4-8.36-10.08-8.36-6.67,0-10.37,3.37-10.97,10.11h0ZM473.42,97.76l-13.34,73.29h17.19l13.34-73.29h-17.19ZM474.9,78.56v.73c0,5.57,4.3,8.06,10.37,8.06s10.67-3.52,10.67-10.55c0-5.57-4-8.36-10.08-8.36-6.67,0-10.37,3.37-10.97,10.11h0ZM577.47,97.76l-13.34,73.29h17.19l13.34-73.29h-17.19ZM578.95,78.56v.73c0,5.57,4.3,8.06,10.37,8.06s10.67-3.52,10.67-10.55c0-5.57-4-8.36-10.08-8.36-6.67,0-10.37,3.37-10.97,10.11h0Z"/>
      </g>
      <rect class="cls-2" width="781.36" height="342.42"/>
    </g>
  </g>
</svg>